<?xml version="1.0" encoding="utf-8"?>
<!-- Generator: Adobe Illustrator 22.0.1, SVG Export Plug-In . SVG Version: 6.00 Build 0)  -->
<svg version="1.1" id="Ebene_1" xmlns="http://www.w3.org/2000/svg" xmlns:xlink="http://www.w3.org/1999/xlink" x="0px" y="0px"
	 viewBox="0 0 78 128" style="enable-background:new 0 0 78 128;" xml:space="preserve">
<style type="text/css">
	.st0{fill:#FF0000;}
	.st1{fill:#FFFFFF;}
</style>
<g>
	<rect class="st0" width="78" height="128"/>
	<g>
		<polygon class="st1" points="44.8,51.9 61.3,51.9 61.3,91.2 		"/>
		<polygon class="st1" points="33.3,51.9 16.8,51.9 16.8,91.2 		"/>
		<polygon class="st1" points="39.1,66.4 49.5,91.2 42.7,91.2 39.5,83.3 31.9,83.3 		"/>
		<path class="st1" d="M19.9,109.3l-0.7,3.4c0,0.1-0.1,0.2-0.2,0.2h-2.1c-0.1,0-0.2,0-0.2-0.2l2.9-12.4c0.1-0.4,0.1-0.6,0.1-1.2
			c0-0.1,0-0.1,0.1-0.1h3c0.1,0,0.2,0,0.2,0.2l3.4,13.6c0,0.1,0,0.2-0.1,0.2H24c-0.1,0-0.2-0.1-0.2-0.2l-0.8-3.4L19.9,109.3
			L19.9,109.3z M22.5,107c-0.3-1.6-0.9-4-1.1-5.6l0,0c-0.2,1.5-0.6,3.6-1,5.6H22.5z"/>
		<path class="st1" d="M26.8,107.6c0-3.2,1.9-5.6,4.8-5.6h0.3v-3.7c0-0.1,0-0.1,0.1-0.1h2.3c0.1,0,0.1,0,0.1,0.1v12.5
			c0,0.3,0,0.8,0.1,1.4c0,0.1,0,0.1-0.1,0.2c-0.9,0.5-2,0.8-3.1,0.8C28.6,113.1,26.8,111.3,26.8,107.6 M31.9,104.3
			c-0.1,0-0.2-0.1-0.5-0.1c-1.2,0-2.1,1.1-2.1,3.3c0,2.3,0.9,3.2,2.1,3.2c0.2,0,0.4,0,0.5-0.1V104.3z"/>
		<path class="st1" d="M43.8,107.5c0,3.4-1.4,5.6-3.9,5.6c-2.8,0-3.9-2.5-3.9-5.6c0-3.2,1.4-5.5,4-5.5
			C42.3,101.9,43.8,104,43.8,107.5 M38.4,107.5c0,2,0.4,3.3,1.4,3.3c0.9,0,1.4-1.1,1.4-3.3c0-2-0.3-3.3-1.4-3.3
			C39,104.2,38.4,105.2,38.4,107.5"/>
		<path class="st1" d="M47.6,98.1C47.7,98.1,47.7,98.1,47.6,98.1l0.1,3.9c0.3-0.1,0.7-0.1,1.2-0.1c2.3,0,4,1.7,4,5.1
			c0,3.9-2.2,6-5,6c-0.8,0-1.6-0.1-2.5-0.4c-0.1,0-0.1-0.1-0.1-0.2V98.2c0-0.1,0-0.1,0.1-0.1C45.4,98.1,47.6,98.1,47.6,98.1z
			 M48.5,104.2c-0.2,0-0.5,0-0.8,0.1v6.4c0.2,0,0.3,0,0.5,0c1,0,2.1-1,2.1-3.7C50.3,105,49.5,104.2,48.5,104.2"/>
		<path class="st1" d="M56.3,108.1c0,1.7,0.6,2.7,2.4,2.7c0.6,0,1.1-0.1,1.6-0.3c0.1,0,0.2,0,0.2,0.1v1.8c0,0.1,0,0.2-0.2,0.3
			c-0.6,0.3-1.4,0.4-2.1,0.4c-3.2,0-4.4-2.3-4.4-5.4c0-3.2,1.4-5.7,4-5.7c2.7,0,3.4,2.4,3.4,4.3c0,0.7-0.1,1.4-0.1,1.6
			c0,0.1-0.1,0.2-0.2,0.2c-0.2,0-0.9,0.1-2.1,0.1L56.3,108.1L56.3,108.1z M58.2,106.1c0.4,0,0.6,0,0.6,0c0-0.1,0-0.2,0-0.2
			c0-0.8-0.3-1.7-1.1-1.7c-0.9,0-1.2,0.9-1.3,1.9C56.4,106.1,58.2,106.1,58.2,106.1z"/>
	</g>
</g>
</svg>
