<?xml version="1.0" encoding="utf-8"?>
<!-- Generator: Adobe Illustrator 15.1.0, SVG Export Plug-In . SVG Version: 6.00 Build 0)  -->
<!DOCTYPE svg PUBLIC "-//W3C//DTD SVG 1.1//EN" "http://www.w3.org/Graphics/SVG/1.1/DTD/svg11.dtd">
<svg version="1.1" id="Ebene_1" xmlns="http://www.w3.org/2000/svg" xmlns:xlink="http://www.w3.org/1999/xlink" x="0px" y="0px"
	 width="478px" height="786px" viewBox="67 3 478 786" enable-background="new 67 3 478 786" xml:space="preserve">
<g>
	<rect x="66.517" y="3" fill="#FF0000" width="478.968" height="786"/>
	<g>
		<polygon fill="#FFFFFF" points="341.616,321.698 442.937,321.698 442.937,563.025 		"/>
		<polygon fill="#FFFFFF" points="270.999,321.698 169.679,321.698 169.679,563.025 		"/>
		<polygon fill="#FFFFFF" points="306.615,410.737 370.477,563.025 328.721,563.025 309.071,514.514 262.402,514.514 		"/>
		<path fill="#FFFFFF" d="M188.715,674.17l-4.298,20.879c0,0.613-0.614,1.228-1.228,1.228h-12.896c-0.614,0-1.228,0-1.228-1.228
			l17.808-76.145c0.614-2.456,0.614-3.684,0.614-7.368c0-0.615,0-0.615,0.615-0.615h18.421c0.614,0,1.229,0,1.229,1.229
			l20.878,83.513c0,0.614,0,1.228-0.614,1.228h-14.124c-0.614,0-1.228-0.613-1.228-1.228l-4.912-20.878h-19.036V674.17z
			 M204.68,660.047c-1.842-9.825-5.526-24.563-6.754-34.388l0,0c-1.228,9.211-3.685,22.106-6.141,34.388H204.68z"/>
		<path fill="#FFFFFF" d="M231.085,663.731c0-19.65,11.667-34.388,29.475-34.388h1.842v-22.721c0-0.614,0-0.614,0.615-0.614h14.123
			c0.614,0,0.614,0,0.614,0.614v76.758c0,1.843,0,4.913,0.614,8.597c0,0.614,0,0.614-0.614,1.229
			c-5.527,3.07-12.281,4.912-19.036,4.912C242.138,697.504,231.085,686.451,231.085,663.731 M262.402,643.467
			c-0.614,0-1.228-0.613-3.07-0.613c-7.369,0-12.895,6.755-12.895,20.263c0,14.124,5.526,19.65,12.895,19.65
			c1.229,0,2.457,0,3.07-0.613V643.467z"/>
		<path fill="#FFFFFF" d="M335.476,663.116c0,20.878-8.597,34.388-23.948,34.388c-17.193,0-23.948-15.351-23.948-34.388
			c0-19.649,8.597-33.772,24.562-33.772C326.264,628.729,335.476,641.624,335.476,663.116 M302.316,663.116
			c0,12.282,2.456,20.265,8.597,20.265c5.526,0,8.597-6.755,8.597-20.265c0-12.28-1.842-20.263-8.597-20.263
			C306,642.854,302.316,648.993,302.316,663.116"/>
		<path fill="#FFFFFF" d="M358.811,605.396c0.613,0,0.613,0,0.613,0.613v23.335c1.843-0.614,4.299-0.614,7.369-0.614
			c14.123,0,24.562,10.439,24.562,31.317c0,23.947-13.51,36.843-30.703,36.843c-4.912,0-9.824-0.613-15.352-2.456
			c-0.614,0-0.614-0.614-0.614-1.228v-87.197c0-0.613,0-0.613,0.614-0.613H358.811L358.811,605.396z M364.336,642.854
			c-1.228,0-3.069,0-4.912,0.613v39.3c1.229,0,1.843,0,3.07,0c6.141,0,12.896-6.141,12.896-22.72
			C375.39,647.766,370.477,642.854,364.336,642.854"/>
		<path fill="#FFFFFF" d="M412.233,666.801c0,10.439,3.685,16.58,14.737,16.58c3.685,0,6.755-0.614,9.825-1.842
			c0.613,0,1.228,0,1.228,0.614v11.053c0,0.613,0,1.228-1.228,1.842c-3.685,1.842-8.597,2.456-12.896,2.456
			c-19.649,0-27.019-14.123-27.019-33.159c0-19.65,8.597-35.001,24.562-35.001c16.579,0,20.878,14.737,20.878,26.404
			c0,4.299-0.613,8.597-0.613,9.825c0,0.613-0.615,1.228-1.229,1.228c-1.229,0-5.526,0.615-12.896,0.615h-15.352V666.801z
			 M423.9,654.521c2.456,0,3.684,0,3.684,0c0-0.614,0-1.229,0-1.229c0-4.913-1.841-10.438-6.753-10.438
			c-5.527,0-7.37,5.525-7.983,11.667H423.9L423.9,654.521z"/>
	</g>
</g>
</svg>
